<svg width="553" height="419" viewBox="0 0 553 419" fill="none" xmlns="http://www.w3.org/2000/svg">
<path d="M299.969 416.946C422.222 407.371 579.062 315.281 549.325 175.368C524.584 58.9658 422.597 0 299.969 0C177.342 0 -148.124 133.315 77.9319 221.894C303.988 310.473 48.5869 436.635 299.969 416.946Z" fill="white"/>
<path d="M88.1382 380.547C88.1402 380.661 88.1648 380.774 88.2105 380.879C88.2562 380.984 88.3221 381.079 88.4044 381.158C88.4868 381.237 88.5839 381.3 88.6904 381.341C88.7968 381.383 88.9104 381.403 89.0247 381.401H531.113C531.228 381.406 531.343 381.387 531.451 381.347C531.558 381.306 531.657 381.244 531.74 381.164C531.823 381.084 531.889 380.989 531.934 380.883C531.98 380.777 532.003 380.663 532.003 380.547C532.003 380.432 531.98 380.318 531.934 380.212C531.889 380.106 531.823 380.01 531.74 379.931C531.657 379.851 531.558 379.789 531.451 379.748C531.343 379.708 531.228 379.689 531.113 379.694H89.0247C88.9104 379.692 88.7969 379.712 88.6905 379.754C88.5841 379.795 88.4869 379.857 88.4046 379.937C88.3223 380.016 88.2563 380.111 88.2106 380.215C88.1649 380.32 88.1403 380.433 88.1382 380.547Z" fill="#CCCCCC"/>
<path d="M313.421 296.324C312.844 299.816 311.046 302.989 308.348 305.279C305.65 307.568 302.227 308.825 298.69 308.825C295.152 308.825 291.729 307.568 289.031 305.279C286.333 302.989 284.535 299.816 283.958 296.324H246.269V378.035H351.109V296.324H313.421Z" fill="#9F9FA9"/>
<path d="M258.461 377.732H248.098V379.562H258.461V377.732Z" fill="#B6B3C5"/>
<path d="M350.195 378.037H339.833V379.866H350.195V378.037Z" fill="#B6B3C5"/>
<path d="M351.416 371.563H246.575V374.408H351.416V371.563Z" fill="#090814"/>
<path d="M509.535 298.458H87.8447C86.2951 298.456 84.8095 297.84 83.7138 296.743C82.6181 295.647 82.0018 294.161 82 292.611V51.8478C82.0016 50.2974 82.6179 48.811 83.7136 47.7147C84.8094 46.6184 86.295 46.0018 87.8447 46H509.535C511.084 46.0018 512.57 46.6184 513.666 47.7146C514.761 48.8108 515.378 50.297 515.38 51.8473V292.611C515.378 294.161 514.761 295.647 513.666 296.743C512.57 297.839 511.084 298.456 509.535 298.458Z" fill="#090814"/>
<path d="M505.017 55.757H92.3611V288.701H505.017V55.757Z" fill="white"/>
<path d="M299.077 171.746L254.831 138.591L211.191 171.293L210.191 169.96L254.831 136.509L298.866 169.506L342.624 121.599L342.8 121.527L386.941 103.735L387.564 105.281L343.599 123.002L299.077 171.746Z" fill="#D6D6E3"/>
<path d="M432.055 233.116H165.935C165.714 233.116 165.502 233.028 165.346 232.872C165.19 232.716 165.102 232.504 165.102 232.283V104.676C165.102 104.455 165.19 104.243 165.346 104.087C165.502 103.931 165.714 103.843 165.935 103.843C166.156 103.843 166.367 103.931 166.524 104.087C166.68 104.243 166.768 104.455 166.768 104.676V231.45H432.055C432.276 231.45 432.488 231.538 432.644 231.694C432.8 231.85 432.888 232.062 432.888 232.283C432.888 232.504 432.8 232.716 432.644 232.872C432.488 233.028 432.276 233.116 432.055 233.116Z" fill="#3F3D56"/>
<path d="M222.794 223.951H198.589C197.933 223.95 197.305 223.69 196.841 223.226C196.378 222.762 196.117 222.134 196.116 221.478V188.097C196.117 187.441 196.378 186.812 196.841 186.349C197.305 185.885 197.933 185.624 198.589 185.624H222.793C223.449 185.624 224.077 185.885 224.541 186.349C225.004 186.812 225.265 187.441 225.266 188.097V221.478C225.265 222.134 225.004 222.762 224.541 223.226C224.077 223.689 223.449 223.95 222.794 223.951Z" fill="#8E51FF"/>
<path d="M266.934 223.95H242.729C242.074 223.95 241.445 223.689 240.982 223.225C240.518 222.762 240.258 222.133 240.257 221.477V156.435C240.258 155.779 240.518 155.151 240.982 154.687C241.445 154.223 242.074 153.963 242.729 153.962H266.934C267.589 153.963 268.218 154.223 268.681 154.687C269.145 155.151 269.405 155.779 269.406 156.435V221.477C269.405 222.133 269.145 222.762 268.681 223.225C268.218 223.689 267.589 223.95 266.934 223.95H266.934Z" fill="#8E51FF"/>
<path d="M311.074 223.951H286.869C286.214 223.95 285.585 223.69 285.122 223.226C284.658 222.762 284.398 222.134 284.397 221.478V188.097C284.398 187.441 284.658 186.812 285.122 186.349C285.585 185.885 286.214 185.624 286.869 185.624H311.074C311.729 185.624 312.358 185.885 312.821 186.349C313.285 186.812 313.545 187.441 313.546 188.097V221.478C313.545 222.134 313.284 222.762 312.821 223.226C312.358 223.689 311.729 223.95 311.074 223.951Z" fill="#8E51FF"/>
<path d="M355.214 223.951H331.009C330.369 223.965 329.749 223.724 329.285 223.282C328.822 222.839 328.553 222.231 328.537 221.59V143.825C328.553 143.185 328.822 142.576 329.285 142.133C329.749 141.691 330.369 141.45 331.009 141.464H355.214C355.854 141.45 356.474 141.691 356.938 142.133C357.401 142.576 357.67 143.184 357.686 143.825V221.589C357.67 222.23 357.401 222.839 356.938 223.281C356.475 223.724 355.855 223.965 355.214 223.951Z" fill="#8E51FF"/>
<path d="M399.355 223.951H375.15C374.494 223.95 373.866 223.69 373.402 223.226C372.939 222.762 372.678 222.134 372.677 221.478V121.441C372.678 120.785 372.939 120.157 373.402 119.693C373.866 119.229 374.494 118.969 375.15 118.968H399.354C400.01 118.969 400.638 119.229 401.101 119.693C401.565 120.157 401.826 120.785 401.827 121.441V221.478C401.826 222.134 401.565 222.762 401.101 223.226C400.638 223.69 400.01 223.95 399.355 223.951Z" fill="#8E51FF"/>
<path d="M210.586 175.386C213.412 175.386 215.703 173.238 215.703 170.588C215.703 167.938 213.412 165.79 210.586 165.79C207.761 165.79 205.47 167.938 205.47 170.588C205.47 173.238 207.761 175.386 210.586 175.386Z" fill="#3F3D56"/>
<path d="M254.712 143.398C257.537 143.398 259.828 141.107 259.828 138.28C259.828 135.453 257.537 133.161 254.712 133.161C251.886 133.161 249.595 135.453 249.595 138.28C249.595 141.107 251.886 143.398 254.712 143.398Z" fill="#3F3D56"/>
<path d="M298.837 175.386C301.662 175.386 303.953 173.238 303.953 170.588C303.953 167.938 301.662 165.79 298.837 165.79C296.011 165.79 293.721 167.938 293.721 170.588C293.721 173.238 296.011 175.386 298.837 175.386Z" fill="#3F3D56"/>
<path d="M342.962 127.404C345.787 127.404 348.078 125.112 348.078 122.285C348.078 119.459 345.787 117.167 342.962 117.167C340.136 117.167 337.846 119.459 337.846 122.285C337.846 125.112 340.136 127.404 342.962 127.404Z" fill="#3F3D56"/>
<path d="M387.087 109.492C389.913 109.492 392.203 107.2 392.203 104.373C392.203 101.545 389.913 99.2534 387.087 99.2534C384.261 99.2534 381.971 101.545 381.971 104.373C381.971 107.2 384.261 109.492 387.087 109.492Z" fill="#3F3D56"/>
<path d="M431.997 193.217C431.997 193.217 424.42 191.91 413.183 181.714C404.293 173.65 392.301 175.236 387.678 176.253C387.52 176.287 387.376 176.368 387.266 176.486C387.156 176.604 387.085 176.753 387.062 176.913C387.039 177.073 387.066 177.235 387.138 177.38C387.211 177.524 387.326 177.642 387.467 177.719C389.336 178.742 392.233 180.237 393.591 180.407C393.591 180.407 390.791 183.306 393.767 184.857C394.124 185.032 394.522 185.105 394.917 185.067C395.312 185.028 395.689 184.881 396.005 184.641C397.437 183.596 401.413 185.971 407.179 187.204C407.179 187.204 429.651 210.47 434.877 206.526L431.997 193.217Z" fill="#FFB9B9"/>
<path d="M470.688 161.586C470.688 161.586 472.778 170.474 470.688 176.748L480.095 178.055L488.457 173.872V168.383C488.457 168.383 484.537 160.017 485.582 150.345L470.688 161.586Z" fill="#FFB9B9"/>
<path d="M497.324 354.241C497.324 354.241 504.141 367.573 503.073 376.461C502.004 385.35 511.957 377.507 510.912 372.278C510.69 378.608 513.837 350.114 515.308 343.443C515.468 342.722 515.354 341.967 514.989 341.326C514.624 340.684 514.033 340.201 513.332 339.97C510.19 338.936 504.93 337.669 502.289 339.607C498.386 342.476 497.324 354.241 497.324 354.241Z" fill="#090814"/>
<path d="M471.472 368.88C471.472 368.88 462.588 380.382 460.236 380.644C457.885 380.906 456.316 384.565 460.236 385.349C468.062 386.712 476.111 385.927 483.527 383.076C484.269 382.787 484.892 382.256 485.297 381.57C485.702 380.884 485.865 380.081 485.759 379.291L484.26 368.096L471.472 368.88Z" fill="#090814"/>
<path d="M456.838 246.802L448.317 247.938C449.487 257.895 449.453 267.956 448.215 277.905V313.708C448.215 313.708 448.05 316.863 454.595 321.448C461.457 326.221 468.07 331.343 474.408 336.793L498.119 357.344C498.119 357.344 507.526 345.841 506.219 339.044C506.219 339.044 490.541 334.077 488.451 325.974C487.252 321.336 481.174 317.449 476.198 315.005C473.069 313.486 470.555 310.941 469.072 307.794C467.589 304.646 467.227 301.086 468.046 297.705C468.336 296.53 468.785 295.4 469.381 294.346C473.562 287.026 479.572 270.557 479.572 270.557L468.074 248.632L456.838 246.802Z" fill="#090814"/>
<path d="M469.382 369.681C469.382 369.681 484.799 372.295 485.322 373.864C485.844 375.432 485.322 371.772 485.322 371.772C485.322 371.772 494.208 344.847 492.138 321.063C490.068 297.279 494.751 281.588 494.751 281.588C494.751 281.588 500.239 263.812 497.103 253.616C493.968 243.421 461.043 247.865 461.043 247.865C461.043 247.865 472.541 274.792 472.279 287.601C472.279 287.601 473.586 326.291 475.938 330.735C475.914 330.713 472.256 368.619 469.382 369.681Z" fill="#090814"/>
<path d="M471.194 168.383C471.194 168.383 472.762 178.044 488.44 173.872L478.01 253.338C478.01 253.338 447.699 254.384 447.96 250.724L454.209 202.628L471.194 168.383Z" fill="white"/>
<path d="M471.603 168.121C469.268 169.948 466.475 171.098 463.531 171.445C460.929 171.645 458.4 172.396 456.112 173.65C453.425 175.156 450.431 177.344 449.522 180.01C447.693 185.238 436.196 193.865 430.97 192.035L432.799 207.72C432.799 207.72 447.694 206.936 450.307 201.184L445.87 257.154H449.789C449.789 257.154 451.88 241.992 453.447 238.855C455.015 235.718 458.151 218.464 458.412 214.281C458.673 210.099 462.593 186.048 465.99 181.888L471.608 169.732L471.603 168.121Z" fill="#D6D6E3"/>
<path opacity="0.1" d="M484.929 158.056C484.588 155.579 485.27 154.032 485.582 151.129L470.688 162.37C470.688 162.37 471.046 163.887 471.318 166.109C472.07 166.231 472.829 166.291 473.59 166.291C478.761 166.291 482.481 162.25 484.929 158.056Z" fill="black"/>
<path d="M473.563 165.513C481.356 165.513 487.673 159.192 487.673 151.396C487.673 143.599 481.356 137.279 473.563 137.279C465.77 137.279 459.452 143.599 459.452 151.396C459.452 159.192 465.77 165.513 473.563 165.513Z" fill="#FFB9B9"/>
<path d="M459.381 139.375C459.298 137.178 459.654 134.987 460.43 132.93C460.214 133.254 460.123 133.644 460.173 134.03C460.223 134.415 460.411 134.77 460.702 135.027C461.122 132.785 462.273 130.745 463.974 129.226C463.046 129.38 462.569 130.527 462.798 131.44C463.112 132.331 463.669 133.116 464.408 133.706C464.329 132.325 465.241 131.036 466.395 130.279C467.597 129.588 468.91 129.113 470.275 128.873C469.807 129.039 469.407 129.356 469.137 129.773C468.868 130.191 468.744 130.686 468.786 131.181C468.789 131.349 468.859 131.509 468.979 131.627C469.11 131.711 469.265 131.751 469.42 131.743C470.778 131.795 472.139 131.765 473.494 131.654C475.16 131.466 476.835 131.377 478.511 131.386C483.754 131.607 489.024 135.189 490.198 140.303C490.441 141.544 490.57 142.805 490.581 144.069L490.837 150.526C490.986 152.41 490.908 154.305 490.606 156.17C490.243 157.892 489.504 159.513 488.443 160.916C487.382 162.32 486.024 163.472 484.466 164.29C482.575 161.547 482.406 158.022 481.751 154.754C481.647 154 481.367 153.281 480.933 152.657C480.708 152.348 480.394 152.116 480.032 151.994C479.67 151.872 479.28 151.865 478.914 151.975C478.206 152.258 477.902 153.338 478.489 153.821C477.965 154.44 476.985 153.979 476.393 153.428C474.739 151.858 473.599 149.822 473.127 147.59C472.891 146.467 472.655 145.084 471.553 144.699C471.175 144.595 470.779 144.569 470.39 144.621C468.093 144.778 464.502 145.728 462.279 144.998C460.239 144.327 459.381 141.311 459.381 139.375Z" fill="#090814"/>
<path d="M430.862 192.041C430.862 192.041 428.771 201.702 432.691 207.726L434.912 207.544L433.702 192.199L430.862 192.041Z" fill="#D6D6E3"/>
<path d="M487.543 165.66L504.397 180.169C504.397 180.169 514.326 190.365 510.145 206.834C510.145 206.834 508.316 230.885 506.225 231.931C506.225 231.931 498.909 246.57 498.386 260.425C498.386 260.425 488.065 239.642 483.617 251.668C479.17 263.693 469.376 266.443 469.376 266.443L475.125 195.342C475.125 195.342 489.633 170.081 487.543 165.66Z" fill="#D6D6E3"/>
<path d="M495.251 226.941C495.251 226.941 499.432 224.065 506.225 231.908L489.502 262.232L483.884 253.747C483.884 253.747 495.776 230.339 495.251 226.941Z" fill="#FFB9B9"/>
<path d="M491.201 228.117C491.201 228.117 500.449 238.506 504.056 236.84L507.396 229.06L494.859 223.673L491.201 228.117Z" fill="#D6D6E3"/>
<path opacity="0.1" d="M492.507 196.224C492.507 196.224 493.03 215.046 490.939 222.105Z" fill="black"/>
<path opacity="0.1" d="M450.175 199.883C450.175 199.883 453.311 198.838 453.311 196.224Z" fill="black"/>
</svg>
