<svg width="577" height="420" viewBox="0 0 577 420" fill="none" xmlns="http://www.w3.org/2000/svg">
<path d="M300.216 417.158C422.469 407.583 579.308 315.492 549.571 175.58C524.831 59.1775 422.844 0.21167 300.216 0.21167C177.588 0.21167 -147.877 133.527 78.179 222.106C304.234 310.685 48.8339 436.847 300.216 417.158Z" fill="#0B0A0C"/>
<path d="M88.385 380.759C88.387 380.873 88.4116 380.986 88.4573 381.091C88.503 381.196 88.5689 381.29 88.6513 381.37C88.7336 381.449 88.8308 381.511 88.9372 381.553C89.0436 381.595 89.1572 381.615 89.2715 381.613H531.36C531.475 381.618 531.59 381.599 531.697 381.558C531.805 381.518 531.904 381.456 531.987 381.376C532.07 381.296 532.136 381.2 532.181 381.094C532.226 380.989 532.25 380.874 532.25 380.759C532.25 380.644 532.226 380.53 532.181 380.424C532.136 380.318 532.07 380.222 531.987 380.143C531.904 380.063 531.805 380.001 531.697 379.96C531.59 379.919 531.475 379.901 531.36 379.906H89.2715C89.1573 379.904 89.0437 379.924 88.9373 379.965C88.8309 380.007 88.7338 380.069 88.6514 380.149C88.5691 380.228 88.5032 380.322 88.4575 380.427C88.4117 380.532 88.3871 380.645 88.385 380.759Z" fill="#27272A"/>
<path d="M313.668 296.536C313.091 300.028 311.293 303.201 308.595 305.491C305.897 307.78 302.474 309.037 298.936 309.037C295.399 309.037 291.976 307.78 289.278 305.491C286.58 303.201 284.782 300.028 284.205 296.536H246.516V378.247H351.356V296.536H313.668Z" fill="#9F9FA9"/>
<path d="M258.707 377.944H248.345V379.774H258.707V377.944Z" fill="#B6B3C5"/>
<path d="M350.442 378.248H340.08V380.078H350.442V378.248Z" fill="#B6B3C5"/>
<path d="M351.662 371.775H246.822V374.619H351.662V371.775Z" fill="#090814"/>
<path d="M509.781 298.669H88.0917C86.5421 298.668 85.0565 298.051 83.9608 296.955C82.8651 295.859 82.2487 294.372 82.247 292.822V52.0595C82.2486 50.5091 82.8649 49.0227 83.9606 47.9264C85.0563 46.8301 86.542 46.2135 88.0917 46.2117H509.781C511.331 46.2135 512.816 46.8301 513.912 47.9263C515.008 49.0225 515.624 50.5087 515.626 52.0589V292.822C515.624 294.372 515.007 295.858 513.912 296.955C512.816 298.051 511.331 298.667 509.781 298.669Z" fill="#D6D6E3"/>
<path d="M505.263 55.9688H92.608V288.913H505.263V55.9688Z" fill="#27272A"/>
<path d="M299.323 171.958L255.078 138.803L211.438 171.504L210.438 170.171L255.078 136.721L299.113 169.718L342.871 121.811L343.047 121.739L387.188 103.947L387.81 105.493L343.846 123.214L299.323 171.958Z" fill="#D6D6E3"/>
<path d="M432.302 233.328H166.182C165.961 233.328 165.749 233.24 165.593 233.084C165.437 232.928 165.349 232.716 165.349 232.495V104.888C165.349 104.667 165.437 104.455 165.593 104.299C165.749 104.142 165.961 104.055 166.182 104.055C166.403 104.055 166.615 104.142 166.771 104.299C166.927 104.455 167.015 104.667 167.015 104.888V231.661H432.302C432.523 231.661 432.735 231.749 432.891 231.905C433.047 232.062 433.135 232.274 433.135 232.495C433.135 232.716 433.047 232.928 432.891 233.084C432.735 233.24 432.523 233.328 432.302 233.328Z" fill="white"/>
<path d="M223.041 224.162H198.836C198.18 224.162 197.552 223.901 197.088 223.437C196.625 222.974 196.364 222.345 196.363 221.689V188.308C196.364 187.652 196.625 187.024 197.088 186.56C197.552 186.097 198.18 185.836 198.836 185.835H223.04C223.696 185.836 224.324 186.097 224.788 186.56C225.251 187.024 225.512 187.652 225.513 188.308V221.69C225.512 222.345 225.251 222.974 224.788 223.437C224.324 223.901 223.696 224.162 223.041 224.162Z" fill="#8E51FF"/>
<path d="M267.181 224.162H242.976C242.321 224.161 241.692 223.901 241.229 223.437C240.765 222.973 240.505 222.345 240.504 221.689V156.646C240.505 155.991 240.765 155.362 241.229 154.899C241.692 154.435 242.321 154.174 242.976 154.173H267.181C267.836 154.174 268.465 154.435 268.928 154.899C269.392 155.362 269.652 155.991 269.653 156.646V221.689C269.652 222.345 269.392 222.973 268.928 223.437C268.465 223.901 267.836 224.161 267.181 224.162H267.181Z" fill="#8E51FF"/>
<path d="M311.321 224.162H287.116C286.461 224.162 285.832 223.901 285.369 223.437C284.905 222.974 284.644 222.345 284.644 221.689V188.308C284.644 187.652 284.905 187.024 285.369 186.56C285.832 186.097 286.461 185.836 287.116 185.835H311.321C311.976 185.836 312.604 186.097 313.068 186.56C313.531 187.024 313.792 187.652 313.793 188.308V221.69C313.792 222.345 313.531 222.974 313.068 223.437C312.605 223.901 311.976 224.162 311.321 224.162Z" fill="#8E51FF"/>
<path d="M355.461 224.163H331.256C330.615 224.176 329.996 223.936 329.532 223.493C329.069 223.051 328.799 222.442 328.783 221.802V144.037C328.799 143.396 329.068 142.788 329.532 142.345C329.995 141.902 330.615 141.662 331.256 141.675H355.46C356.101 141.662 356.721 141.902 357.184 142.345C357.648 142.787 357.917 143.396 357.933 144.036V221.801C357.917 222.442 357.648 223.05 357.185 223.493C356.721 223.935 356.101 224.176 355.461 224.163Z" fill="#8E51FF"/>
<path d="M399.601 224.163H375.396C374.741 224.162 374.113 223.901 373.649 223.437C373.186 222.974 372.925 222.345 372.924 221.69V121.653C372.925 120.997 373.186 120.368 373.649 119.905C374.113 119.441 374.741 119.18 375.396 119.18H399.601C400.256 119.18 400.885 119.441 401.348 119.905C401.812 120.368 402.073 120.997 402.073 121.653V221.69C402.073 222.345 401.812 222.974 401.348 223.437C400.885 223.901 400.257 224.162 399.601 224.163Z" fill="#8E51FF"/>
<path d="M210.833 175.598C213.659 175.598 215.95 173.45 215.95 170.8C215.95 168.15 213.659 166.001 210.833 166.001C208.008 166.001 205.717 168.15 205.717 170.8C205.717 173.45 208.008 175.598 210.833 175.598Z" fill="white"/>
<path d="M254.958 143.61C257.784 143.61 260.075 141.318 260.075 138.492C260.075 135.665 257.784 133.373 254.958 133.373C252.133 133.373 249.842 135.665 249.842 138.492C249.842 141.318 252.133 143.61 254.958 143.61Z" fill="white"/>
<path d="M299.084 175.598C301.909 175.598 304.2 173.45 304.2 170.8C304.2 168.15 301.909 166.001 299.084 166.001C296.258 166.001 293.967 168.15 293.967 170.8C293.967 173.45 296.258 175.598 299.084 175.598Z" fill="white"/>
<path d="M343.209 127.615C346.034 127.615 348.325 125.324 348.325 122.497C348.325 119.67 346.034 117.379 343.209 117.379C340.383 117.379 338.092 119.67 338.092 122.497C338.092 125.324 340.383 127.615 343.209 127.615Z" fill="white"/>
<path d="M387.333 109.704C390.159 109.704 392.45 107.412 392.45 104.584C392.45 101.757 390.159 99.465 387.333 99.465C384.508 99.465 382.217 101.757 382.217 104.584C382.217 107.412 384.508 109.704 387.333 109.704Z" fill="white"/>
<path d="M432.244 193.428C432.244 193.428 424.666 192.121 413.43 181.926C404.539 173.862 392.548 175.447 387.924 176.464C387.766 176.498 387.623 176.58 387.513 176.698C387.403 176.816 387.332 176.964 387.309 177.124C387.286 177.284 387.312 177.447 387.385 177.591C387.457 177.735 387.572 177.854 387.714 177.931C389.583 178.954 392.48 180.448 393.838 180.618C393.838 180.618 391.037 183.517 394.014 185.068C394.37 185.243 394.768 185.316 395.163 185.278C395.559 185.24 395.936 185.092 396.252 184.852C397.683 183.807 401.66 186.182 407.425 187.415C407.425 187.415 429.898 210.682 435.124 206.738L432.244 193.428Z" fill="#FFB9B9"/>
<path d="M470.934 161.797C470.934 161.797 473.025 170.685 470.934 176.959L480.342 178.266L488.703 174.083V168.594C488.703 168.594 484.783 160.229 485.829 150.556L470.934 161.797Z" fill="#FFB9B9"/>
<path d="M497.57 354.452C497.57 354.452 504.387 367.784 503.319 376.673C502.251 385.561 512.203 377.718 511.158 372.49C510.937 378.819 514.083 350.326 515.555 343.654C515.714 342.933 515.6 342.179 515.235 341.537C514.87 340.895 514.279 340.412 513.578 340.182C510.437 339.147 505.177 337.88 502.535 339.818C498.633 342.688 497.57 354.452 497.57 354.452Z" fill="black"/>
<path d="M471.719 369.784C471.719 369.784 462.834 381.286 460.483 381.548C458.132 381.81 456.563 385.47 460.483 386.254C468.309 387.617 476.358 386.831 483.773 383.981C484.515 383.691 485.139 383.161 485.544 382.474C485.948 381.788 486.111 380.986 486.006 380.196L484.506 369L471.719 369.784Z" fill="black"/>
<path d="M457.085 247.014L448.564 248.149C449.733 258.106 449.699 268.167 448.462 278.116V313.919C448.462 313.919 448.297 317.074 454.841 321.66C461.703 326.433 468.317 331.554 474.655 337.004L498.365 357.555C498.365 357.555 507.773 346.052 506.466 339.256C506.466 339.256 490.788 334.289 488.697 326.185C487.499 321.547 481.42 317.66 476.444 315.217C473.316 313.697 470.801 311.152 469.318 308.005C467.835 304.858 467.473 301.298 468.292 297.916C468.583 296.741 469.032 295.611 469.627 294.557C473.808 287.238 479.818 270.768 479.818 270.768L468.321 248.843L457.085 247.014Z" fill="#D6D6E3"/>
<path d="M469.629 369.892C469.629 369.892 485.046 372.506 485.568 374.075C486.091 375.643 485.568 371.983 485.568 371.983C485.568 371.983 494.455 345.058 492.385 321.274C490.315 297.49 494.998 281.799 494.998 281.799C494.998 281.799 500.485 264.023 497.35 253.828C494.214 243.632 461.289 248.077 461.289 248.077C461.289 248.077 472.787 275.003 472.526 287.812C472.526 287.812 473.832 326.502 476.184 330.947C476.161 330.924 472.503 368.83 469.629 369.892Z" fill="#D6D6E3"/>
<path d="M471.44 168.594C471.44 168.594 473.008 178.255 488.686 174.084L478.257 253.549C478.257 253.549 447.945 254.595 448.206 250.935L454.455 202.84L471.44 168.594Z" fill="#27272A"/>
<path d="M471.849 168.332C469.514 170.16 466.722 171.31 463.777 171.657C461.176 171.856 458.647 172.608 456.358 173.862C453.672 175.368 450.678 177.556 449.769 180.221C447.94 185.449 436.442 194.076 431.216 192.246L433.046 207.932C433.046 207.932 447.94 207.147 450.553 201.396L446.116 257.366H450.036C450.036 257.366 452.126 242.203 453.694 239.066C455.261 235.929 458.397 218.676 458.659 214.493C458.92 210.31 462.84 186.259 466.236 182.1L471.855 169.944L471.849 168.332Z" fill="#09090B"/>
<path opacity="0.1" d="M485.175 158.268C484.834 155.79 485.516 154.244 485.829 151.34L470.934 162.581C470.934 162.581 471.292 164.099 471.565 166.32C472.316 166.442 473.076 166.503 473.837 166.503C479.007 166.503 482.727 162.462 485.175 158.268Z" fill="black"/>
<path d="M473.809 165.724C481.602 165.724 487.92 159.404 487.92 151.607C487.92 143.811 481.602 137.49 473.809 137.49C466.016 137.49 459.699 143.811 459.699 151.607C459.699 159.404 466.016 165.724 473.809 165.724Z" fill="#FFB9B9"/>
<path d="M459.628 139.586C459.544 137.39 459.901 135.199 460.676 133.142C460.461 133.465 460.37 133.856 460.42 134.241C460.47 134.627 460.658 134.981 460.949 135.239C461.369 132.997 462.519 130.957 464.221 129.438C463.293 129.591 462.816 130.738 463.045 131.651C463.358 132.543 463.916 133.328 464.654 133.917C464.575 132.536 465.488 131.247 466.641 130.49C467.843 129.8 469.156 129.324 470.521 129.085C470.053 129.251 469.653 129.567 469.384 129.985C469.115 130.402 468.991 130.897 469.032 131.392C469.036 131.561 469.106 131.721 469.226 131.839C469.357 131.922 469.511 131.963 469.667 131.954C471.025 132.007 472.385 131.977 473.74 131.865C475.406 131.678 477.081 131.588 478.758 131.598C484.001 131.818 489.27 135.4 490.445 140.515C490.688 141.756 490.816 143.016 490.827 144.281L491.083 150.738C491.232 152.621 491.155 154.516 490.853 156.381C490.489 158.103 489.751 159.724 488.69 161.128C487.628 162.531 486.27 163.683 484.713 164.501C482.821 161.758 482.653 158.233 481.997 154.965C481.893 154.211 481.613 153.493 481.179 152.868C480.955 152.559 480.64 152.327 480.278 152.205C479.917 152.083 479.526 152.076 479.161 152.186C478.453 152.47 478.149 153.55 478.736 154.033C478.211 154.652 477.231 154.19 476.64 153.639C474.985 152.069 473.846 150.033 473.373 147.801C473.137 146.679 472.901 145.295 471.8 144.911C471.421 144.807 471.026 144.78 470.636 144.832C468.34 144.99 464.748 145.939 462.525 145.21C460.486 144.539 459.628 141.522 459.628 139.586Z" fill="#090814"/>
<path d="M431.109 192.252C431.109 192.252 429.018 201.913 432.938 207.937L435.159 207.755L433.949 192.411L431.109 192.252Z" fill="#444452"/>
<path d="M487.789 165.871L504.644 180.38C504.644 180.38 514.573 190.576 510.392 207.045C510.392 207.045 508.562 231.096 506.472 232.142C506.472 232.142 499.155 246.781 498.633 260.636C498.633 260.636 488.311 239.853 483.864 251.879C479.416 263.904 469.622 266.654 469.622 266.654L475.371 195.554C475.371 195.554 489.88 170.293 487.789 165.871Z" fill="#09090B"/>
<path d="M495.497 227.152C495.497 227.152 499.678 224.276 506.472 232.119L489.749 262.444L484.13 253.959C484.13 253.959 496.022 230.55 495.497 227.152Z" fill="#FFB9B9"/>
<path d="M491.447 228.328C491.447 228.328 500.695 238.717 504.302 237.052L507.642 229.271L495.105 223.884L491.447 228.328Z" fill="#444452"/>
<path opacity="0.1" d="M492.754 196.435C492.754 196.435 493.276 215.258 491.186 222.316Z" fill="black"/>
<path opacity="0.1" d="M450.422 200.095C450.422 200.095 453.557 199.049 453.557 196.435Z" fill="black"/>
</svg>
